<svg width="152" height="44" viewBox="0 0 152 44" fill="none" xmlns="http://www.w3.org/2000/svg">
<path d="M56.2781 33.3064C53.4766 33.3064 51.493 32.7261 50.3276 31.5657C49.1845 30.4053 48.613 28.7539 48.613 26.6116V20.7871C48.4113 20.8095 48.1536 20.8206 47.8398 20.8206C46.9881 20.8206 46.3269 20.5751 45.8563 20.0842C45.3856 19.5709 45.1503 18.8122 45.1503 17.808C45.1503 16.6922 45.408 15.8777 45.9235 15.3644C46.4614 14.8511 47.3803 14.5945 48.6803 14.5945C50.025 14.5945 50.9551 14.8511 51.4706 15.3644C51.9861 15.8553 52.2439 16.7257 52.2439 17.9753V26.7455C52.2439 28.1291 52.524 29.1556 53.0843 29.8251C53.6671 30.4722 54.7205 30.7958 56.2445 30.7958C57.41 30.7958 58.2729 30.6173 58.8332 30.2602C59.3935 29.9032 59.7633 29.4011 59.9426 28.7539C60.1219 28.0844 60.2116 27.1472 60.2116 25.9421V15.0966H63.8424V26.6116C63.8424 28.7762 63.2821 30.4388 62.1615 31.5992C61.0408 32.7373 59.0797 33.3064 56.2781 33.3064ZM48.613 19.1469C49.1509 19.1469 49.5207 19.0465 49.7224 18.8457C49.9466 18.6448 50.0586 18.2989 50.0586 17.808C50.0586 17.2724 49.9578 16.9153 49.7561 16.7368C49.5544 16.536 49.1733 16.4355 48.613 16.4355C48.0527 16.4355 47.6717 16.536 47.47 16.7368C47.2683 16.9153 47.1674 17.2724 47.1674 17.808C47.1674 18.3212 47.2683 18.6783 47.47 18.8791C47.6717 19.0577 48.0527 19.1469 48.613 19.1469Z" fill="#5939C6"/>
<path d="M74.2252 33.3064C71.4908 33.3064 69.5969 32.7708 68.5435 31.6996C67.5126 30.6061 66.9971 29.1779 66.9971 27.415V24.9044C66.9971 23.6994 67.2884 22.8291 67.8712 22.2935C68.4539 21.7356 69.4176 21.4566 70.7624 21.4566C72.0847 21.4566 73.0037 21.7133 73.5192 22.2265C74.0571 22.7175 74.326 23.5097 74.326 24.6032C74.326 25.4958 74.0795 26.2322 73.5864 26.8124C73.1157 27.3703 72.4994 27.6493 71.7374 27.6493C71.2443 27.6493 70.8745 27.627 70.6279 27.5823V28.2518C70.6279 29.0998 70.9193 29.7358 71.502 30.1598C72.0847 30.5838 72.9925 30.7958 74.2252 30.7958C75.4579 30.7958 76.4216 30.5727 77.1164 30.1263C77.8112 29.6577 78.1586 28.9882 78.1586 28.1179V20.8876C78.1586 19.5932 77.7888 18.6448 77.0491 18.0423C76.3319 17.4174 75.1777 17.105 73.5864 17.105C72.5106 17.105 71.5468 17.2612 70.6952 17.5737C69.8435 17.8638 69.0478 18.3436 68.3082 19.013L66.7281 17.0046C67.6695 16.2235 68.7677 15.6322 70.0228 15.2305C71.2779 14.8065 72.6002 14.5945 73.9898 14.5945C76.7466 14.5945 78.7301 15.1412 79.9404 16.2347C81.1731 17.3282 81.7894 18.8903 81.7894 20.921V27.9171C81.7894 28.7874 81.5541 29.6354 81.0834 30.4611C80.6128 31.2645 79.8059 31.9451 78.6629 32.503C77.5422 33.0386 76.063 33.3064 74.2252 33.3064ZM70.7288 26.0091C71.2667 26.0091 71.6365 25.9198 71.8382 25.7413C72.0399 25.5404 72.1408 25.1834 72.1408 24.6701C72.1408 24.1345 72.0399 23.7775 71.8382 23.5989C71.6589 23.3981 71.2891 23.2977 70.7288 23.2977C70.1685 23.2977 69.7875 23.3981 69.5857 23.5989C69.384 23.7775 69.2832 24.1345 69.2832 24.6701C69.2832 25.1611 69.384 25.507 69.5857 25.7078C69.8099 25.9086 70.1909 26.0091 70.7288 26.0091Z" fill="#5939C6"/>
<path d="M85.3927 25.5404C85.3927 24.6032 85.5384 23.8221 85.8297 23.1973C86.1211 22.5501 86.6254 22.0257 87.3426 21.624L84.6867 20.0507V17.6741C85.7401 16.6922 86.9616 15.9334 88.3512 15.3979C89.7407 14.8623 91.2424 14.5945 92.8561 14.5945C95.4784 14.5945 97.4619 15.1635 98.8067 16.3017C100.151 17.4174 100.824 18.9349 100.824 20.8541V32.8043H97.1929V20.7537C97.1929 19.5486 96.8231 18.6448 96.0835 18.0423C95.3439 17.4174 94.2681 17.105 92.8561 17.105C90.9734 17.105 89.3821 17.6071 88.0822 18.6113V19.0465L90.8053 20.7537V22.3269C90.1105 22.5947 89.6399 22.9629 89.3933 23.4316C89.1468 23.8779 89.0235 24.5585 89.0235 25.4735V32.8043H85.3927V25.5404Z" fill="#5939C6"/>
<path d="M114.52 33.3064C111.719 33.3064 109.735 32.7261 108.57 31.5657C107.427 30.4053 106.855 28.7539 106.855 26.6116V20.7871C106.654 20.8095 106.396 20.8206 106.082 20.8206C105.23 20.8206 104.569 20.5751 104.098 20.0842C103.628 19.5709 103.392 18.8122 103.392 17.808C103.392 16.6922 103.65 15.8777 104.166 15.3644C104.704 14.8511 105.623 14.5945 106.922 14.5945C108.267 14.5945 109.197 14.8511 109.713 15.3644C110.228 15.8553 110.486 16.7257 110.486 17.9753V26.7455C110.486 28.1291 110.766 29.1556 111.327 29.8251C111.909 30.4722 112.963 30.7958 114.487 30.7958C115.652 30.7958 116.515 30.6173 117.075 30.2602C117.636 29.9032 118.006 29.4011 118.185 28.7539C118.364 28.0844 118.454 27.1472 118.454 25.9421V15.0966H122.085V26.6116C122.085 28.7762 121.524 30.4388 120.404 31.5992C119.283 32.7373 117.322 33.3064 114.52 33.3064ZM106.855 19.1469C107.393 19.1469 107.763 19.0465 107.965 18.8457C108.189 18.6448 108.301 18.2989 108.301 17.808C108.301 17.2724 108.2 16.9153 107.998 16.7368C107.797 16.536 107.416 16.4355 106.855 16.4355C106.295 16.4355 105.914 16.536 105.712 16.7368C105.51 16.9153 105.41 17.2724 105.41 17.808C105.41 18.3212 105.51 18.6783 105.712 18.8791C105.914 19.0577 106.295 19.1469 106.855 19.1469Z" fill="#5939C6"/>
<path d="M118.448 40.7041C118.247 40.7264 117.989 40.7376 117.675 40.7376C116.823 40.7376 116.162 40.4809 115.692 39.9677C115.221 39.4767 114.986 38.7291 114.986 37.7249C114.986 36.6091 115.254 35.7946 115.792 35.2813C116.308 34.768 117.216 34.5114 118.516 34.5114C119.86 34.5114 120.79 34.7569 121.306 35.2478C121.821 35.7611 122.079 36.6426 122.079 37.8923V43.7167H118.448V40.7041ZM118.448 39.0639C118.986 39.0639 119.367 38.9634 119.591 38.7626C119.793 38.5618 119.894 38.2159 119.894 37.7249C119.894 37.1893 119.793 36.8211 119.591 36.6203C119.39 36.4417 119.009 36.3525 118.448 36.3525C117.888 36.3525 117.507 36.4417 117.305 36.6203C117.104 36.8211 117.003 37.1893 117.003 37.7249C117.003 38.2382 117.104 38.5841 117.305 38.7626C117.507 38.9634 117.888 39.0639 118.448 39.0639Z" fill="#5939C6"/>
<path d="M129.206 33.3064C127.884 33.3064 126.965 33.0386 126.45 32.503C125.934 31.9451 125.676 31.0413 125.676 29.7916V26.3438C125.676 25.1164 125.788 24.1345 126.013 23.3981C126.259 22.6617 126.797 22.0703 127.626 21.624L124.97 20.0507V17.6741C127.167 15.621 129.8 14.5945 132.871 14.5945C135.448 14.5945 137.353 15.1524 138.586 16.2682C139.841 17.384 140.469 18.9126 140.469 20.8541V25.0383C140.469 26.4442 140.726 27.4708 141.242 28.1179C141.78 28.7651 142.766 29.0887 144.2 29.0887C145.254 29.0887 146.049 28.9213 146.587 28.5865C147.125 28.2518 147.473 27.7609 147.63 27.1137C147.809 26.4665 147.898 25.5851 147.898 24.4693V15.0966H151.529V24.871C151.529 29.3788 149.098 31.6327 144.234 31.6327C141.545 31.6327 139.651 31.0525 138.552 29.892C137.477 28.7093 136.939 27.0356 136.939 24.871V20.7537C136.939 19.504 136.614 18.589 135.964 18.0088C135.336 17.4063 134.305 17.105 132.871 17.105C131.952 17.105 131.123 17.2389 130.383 17.5067C129.666 17.7522 128.993 18.1204 128.366 18.6113V19.0465L131.089 20.7537V22.3269C130.372 22.5947 129.89 22.9406 129.643 23.3646C129.397 23.7663 129.274 24.3912 129.274 25.2392V27.1137C129.475 27.0914 129.733 27.0802 130.047 27.0802C130.898 27.0802 131.56 27.3369 132.03 27.8501C132.501 28.3411 132.736 29.0887 132.736 30.0929C132.736 31.2087 132.467 32.0232 131.929 32.5365C131.414 33.0497 130.506 33.3064 129.206 33.3064ZM129.274 31.4653C129.834 31.4653 130.215 31.376 130.417 31.1975C130.618 30.9967 130.719 30.6285 130.719 30.0929C130.719 29.5796 130.618 29.2337 130.417 29.0552C130.215 28.8543 129.834 28.7539 129.274 28.7539C128.736 28.7539 128.355 28.8543 128.131 29.0552C127.929 29.256 127.828 29.6019 127.828 30.0929C127.828 30.6285 127.929 30.9967 128.131 31.1975C128.332 31.376 128.713 31.4653 129.274 31.4653ZM144.738 39.8338C142.497 39.8338 140.626 39.4544 139.124 38.6956C137.622 37.9369 136.871 36.81 136.871 35.3148C136.871 34.1097 137.129 33.2506 137.645 32.7373C138.183 32.224 139.068 31.9674 140.301 31.9674C141.533 31.9674 142.43 32.2017 142.99 32.6704C143.55 33.139 143.831 33.9312 143.831 35.047C143.831 35.471 143.763 35.8169 143.629 36.0847C143.494 36.3748 143.293 36.6203 143.024 36.8211C143.405 37.0443 144.055 37.1558 144.974 37.1558C147.327 37.1558 149.142 36.4417 150.42 35.0135L152 37.022C151.26 37.9815 150.252 38.6845 148.974 39.1308C147.697 39.5994 146.285 39.8338 144.738 39.8338ZM140.233 36.4864C140.771 36.4864 141.141 36.386 141.343 36.1851C141.544 35.9843 141.645 35.6384 141.645 35.1474C141.645 34.6342 141.544 34.2771 141.343 34.0763C141.141 33.8977 140.771 33.8085 140.233 33.8085C139.695 33.8085 139.326 33.8977 139.124 34.0763C138.922 34.2771 138.821 34.6342 138.821 35.1474C138.821 35.6384 138.922 35.9843 139.124 36.1851C139.348 36.386 139.718 36.4864 140.233 36.4864Z" fill="#5939C6"/>
<path d="M7.44542 12.6736C7.60286 12.8064 7.76545 12.9332 7.93285 13.0538L14.6764 17.9099C15.1467 18.2486 15.7822 18.2486 16.2525 17.9099L23.5064 12.6863L28.4009 15.4774C29.4527 16.0773 29.9787 16.3772 30.158 16.7717C30.3145 17.1159 30.3176 17.5099 30.1666 17.8566C29.9936 18.2539 29.4725 18.562 28.4303 19.1784L16.5635 26.1961C16.1638 26.4325 15.9639 26.5507 15.7508 26.5969C15.5623 26.6377 15.3672 26.6377 15.1786 26.5969C14.9655 26.5507 14.7657 26.4325 14.366 26.1961L2.49918 19.1784C1.45698 18.562 0.935875 18.2539 0.762819 17.8566C0.611848 17.5099 0.614979 17.1159 0.771441 16.7717C0.95079 16.3772 1.47673 16.0773 2.52859 15.4774L7.44542 12.6736Z" fill="#5939C6"/>
<path d="M13.7461 27.3424L3.25696 21.0887C2.19078 20.453 1.65768 20.1352 1.21911 20.1762C0.836691 20.2119 0.487868 20.4088 0.260616 20.7171C0 21.0707 0 21.6894 0 22.9267V34.5535C0 34.9963 0 35.2177 0.063846 35.4165C0.120345 35.5925 0.212815 35.755 0.335437 35.8937C0.474001 36.0504 0.664756 36.1641 1.04624 36.3915L11.5354 42.6452C12.6016 43.2809 13.1347 43.5987 13.5732 43.5577C13.9557 43.522 14.3045 43.3251 14.5317 43.0168C14.7923 42.6632 14.7923 42.0445 14.7923 40.8072V29.1804C14.7923 28.7376 14.7923 28.5162 14.7285 28.3174C14.672 28.1414 14.5795 27.9789 14.4569 27.8402C14.3183 27.6835 14.1276 27.5698 13.7461 27.3424Z" fill="#5939C6"/>
<path d="M27.6725 21.0887L17.1834 27.3424C16.8019 27.5698 16.6111 27.6835 16.4725 27.8402C16.3499 27.9789 16.2574 28.1414 16.2009 28.3174C16.1371 28.5162 16.1371 28.7376 16.1371 29.1804V40.8072C16.1371 42.0445 16.1371 42.6632 16.3977 43.0168C16.625 43.3251 16.9738 43.522 17.3562 43.5577C17.7948 43.5987 18.3279 43.2809 19.3941 42.6452L29.8832 36.3916C30.2647 36.1641 30.4554 36.0504 30.594 35.8937C30.7166 35.755 30.8091 35.5925 30.8656 35.4165C30.9294 35.2177 30.9294 34.9963 30.9294 34.5535V22.9267C30.9294 21.6894 30.9294 21.0707 30.6688 20.7171C30.4416 20.4088 30.0928 20.2119 29.7103 20.1762C29.2718 20.1352 28.7387 20.453 27.6725 21.0887Z" fill="#5939C6"/>
<path fill-rule="evenodd" clip-rule="evenodd" d="M24.0352 1.67266C23.0398 0.601702 21.6894 0 20.2814 0C18.8733 0 17.523 0.601702 16.5276 1.67266L15.5047 2.77267L14.4818 1.67266C12.4086 -0.556815 9.0473 -0.556815 6.97412 1.67266C4.90094 3.90214 4.22856 7.51684 6.30174 9.74632L7.32463 10.8463L14.7166 16.1694C15.1869 16.5081 15.8224 16.5081 16.2927 16.1694L23.6847 10.8463L24.7076 9.74632C26.5464 7.76977 25.7268 3.49093 24.0352 1.67266Z" fill="#FFD301"/>
</svg>
