<svg width="131" height="38" viewBox="0 0 131 38" fill="none" xmlns="http://www.w3.org/2000/svg">
<path d="M48.5029 28.951C46.0884 28.951 44.3789 28.4467 43.3744 27.438C42.3893 26.4293 41.8968 24.9939 41.8968 23.1317V18.0689C41.7229 18.0883 41.5008 18.098 41.2303 18.098C40.4963 18.098 39.9265 17.8846 39.5209 17.4579C39.1152 17.0117 38.9124 16.3522 38.9124 15.4793C38.9124 14.5094 39.1345 13.8014 39.5788 13.3553C40.0424 12.9091 40.8344 12.6861 41.9547 12.6861C43.1137 12.6861 43.9153 12.9091 44.3596 13.3553C44.8038 13.782 45.026 14.5385 45.026 15.6248V23.2481C45.026 24.4507 45.2674 25.343 45.7503 25.925C46.2525 26.4875 47.1604 26.7688 48.4739 26.7688C49.4783 26.7688 50.222 26.6136 50.7049 26.3032C51.1878 25.9929 51.5065 25.5564 51.6611 24.9939C51.8156 24.4119 51.8929 23.5972 51.8929 22.5498V13.1225H55.0221V23.1317C55.0221 25.0133 54.5392 26.4584 53.5734 27.4671C52.6076 28.4564 50.9174 28.951 48.5029 28.951ZM41.8968 16.6432C42.3603 16.6432 42.6791 16.5559 42.8529 16.3813C43.0461 16.2067 43.1426 15.9061 43.1426 15.4793C43.1426 15.0138 43.0557 14.7034 42.8819 14.5482C42.708 14.3737 42.3797 14.2864 41.8968 14.2864C41.4138 14.2864 41.0855 14.3737 40.9116 14.5482C40.7378 14.7034 40.6509 15.0138 40.6509 15.4793C40.6509 15.9255 40.7378 16.2358 40.9116 16.4104C41.0855 16.5656 41.4138 16.6432 41.8968 16.6432Z" fill="white"/>
<path d="M63.9704 28.951C61.6138 28.951 59.9816 28.4854 59.0737 27.5544C58.1852 26.6039 57.7409 25.3624 57.7409 23.83V21.6478C57.7409 20.6003 57.992 19.8438 58.4942 19.3783C58.9965 18.8933 59.827 18.6508 60.986 18.6508C62.1257 18.6508 62.9176 18.8739 63.3619 19.3201C63.8255 19.7468 64.0573 20.4354 64.0573 21.3859C64.0573 22.1618 63.8448 22.8019 63.4199 23.3063C63.0142 23.7912 62.483 24.0337 61.8263 24.0337C61.4013 24.0337 61.0826 24.0143 60.8701 23.9755V24.5574C60.8701 25.2945 61.1212 25.8474 61.6235 26.2159C62.1257 26.5845 62.908 26.7688 63.9704 26.7688C65.0328 26.7688 65.8633 26.5748 66.4622 26.1868C67.061 25.7795 67.3604 25.1975 67.3604 24.441V18.1562C67.3604 17.0311 67.0416 16.2067 66.4042 15.683C65.7861 15.1399 64.7913 14.8683 63.4199 14.8683C62.4927 14.8683 61.6621 15.0041 60.9281 15.2756C60.1941 15.5278 59.5083 15.9449 58.8709 16.5268L57.5091 14.781C58.3204 14.1021 59.2669 13.5881 60.3486 13.2389C61.4303 12.8703 62.5699 12.6861 63.7675 12.6861C66.1434 12.6861 67.8529 13.1613 68.896 14.1118C69.9584 15.0623 70.4896 16.4201 70.4896 18.1853V24.2665C70.4896 25.023 70.2868 25.7601 69.8811 26.4778C69.4755 27.1761 68.7801 27.7677 67.795 28.2527C66.8292 28.7182 65.5543 28.951 63.9704 28.951ZM60.957 22.608C61.4206 22.608 61.7393 22.5304 61.9132 22.3752C62.087 22.2006 62.174 21.8902 62.174 21.4441C62.174 20.9786 62.087 20.6682 61.9132 20.513C61.7587 20.3384 61.4399 20.2511 60.957 20.2511C60.4741 20.2511 60.1458 20.3384 59.9719 20.513C59.7981 20.6682 59.7112 20.9786 59.7112 21.4441C59.7112 21.8708 59.7981 22.1715 59.9719 22.3461C60.1651 22.5207 60.4935 22.608 60.957 22.608Z" fill="white"/>
<path d="M73.595 22.2006C73.595 21.3859 73.7206 20.707 73.9717 20.1639C74.2228 19.6013 74.6574 19.1455 75.2755 18.7963L72.9866 17.4288V15.3629C73.8944 14.5094 74.9472 13.8499 76.1448 13.3844C77.3424 12.9188 78.6365 12.6861 80.0273 12.6861C82.2873 12.6861 83.9968 13.1807 85.1557 14.17C86.3147 15.1399 86.8942 16.4589 86.8942 18.1271V28.5145H83.765V18.0398C83.765 16.9923 83.4463 16.2067 82.8088 15.683C82.1714 15.1399 81.2442 14.8683 80.0273 14.8683C78.4047 14.8683 77.0333 15.3047 75.913 16.1776V16.5559L78.2599 18.0398V19.4073C77.6611 19.6401 77.2554 19.9602 77.0429 20.3675C76.8305 20.7555 76.7242 21.3471 76.7242 22.1424V28.5145H73.595V22.2006Z" fill="white"/>
<path d="M98.6985 28.951C96.284 28.951 94.5745 28.4467 93.57 27.438C92.5849 26.4293 92.0924 24.9939 92.0924 23.1317V18.0689C91.9185 18.0883 91.6964 18.098 91.4259 18.098C90.6919 18.098 90.1221 17.8846 89.7165 17.4579C89.3108 17.0117 89.108 16.3522 89.108 15.4793C89.108 14.5094 89.3301 13.8014 89.7744 13.3553C90.238 12.9091 91.03 12.6861 92.1503 12.6861C93.3093 12.6861 94.1109 12.9091 94.5552 13.3553C94.9994 13.782 95.2216 14.5385 95.2216 15.6248V23.2481C95.2216 24.4507 95.463 25.343 95.9459 25.925C96.4481 26.4875 97.356 26.7688 98.6695 26.7688C99.6739 26.7688 100.418 26.6136 100.901 26.3032C101.383 25.9929 101.702 25.5564 101.857 24.9939C102.011 24.4119 102.088 23.5972 102.088 22.5498V13.1225H105.218V23.1317C105.218 25.0133 104.735 26.4584 103.769 27.4671C102.803 28.4564 101.113 28.951 98.6985 28.951ZM92.0924 16.6432C92.5559 16.6432 92.8747 16.5559 93.0485 16.3813C93.2417 16.2067 93.3382 15.9061 93.3382 15.4793C93.3382 15.0138 93.2513 14.7034 93.0775 14.5482C92.9036 14.3737 92.5753 14.2864 92.0924 14.2864C91.6095 14.2864 91.2811 14.3737 91.1072 14.5482C90.9334 14.7034 90.8465 15.0138 90.8465 15.4793C90.8465 15.9255 90.9334 16.2358 91.1072 16.4104C91.2811 16.5656 91.6095 16.6432 92.0924 16.6432Z" fill="white"/>
<path d="M102.084 35.3813C101.91 35.4007 101.688 35.4104 101.417 35.4104C100.683 35.4104 100.113 35.1873 99.7078 34.7412C99.3022 34.3144 99.0994 33.6646 99.0994 32.7917C99.0994 31.8218 99.3312 31.1138 99.7947 30.6677C100.239 30.2215 101.021 29.9985 102.142 29.9985C103.301 29.9985 104.102 30.2118 104.547 30.6386C104.991 31.0847 105.213 31.8509 105.213 32.9372V38H102.084V35.3813ZM102.084 33.9556C102.547 33.9556 102.876 33.8683 103.069 33.6937C103.243 33.5191 103.33 33.2185 103.33 32.7917C103.33 32.3262 103.243 32.0061 103.069 31.8315C102.895 31.6764 102.567 31.5988 102.084 31.5988C101.601 31.5988 101.272 31.6764 101.099 31.8315C100.925 32.0061 100.838 32.3262 100.838 32.7917C100.838 33.2379 100.925 33.5385 101.099 33.6937C101.272 33.8683 101.601 33.9556 102.084 33.9556Z" fill="white"/>
<path d="M111.355 28.951C110.216 28.951 109.424 28.7182 108.98 28.2527C108.535 27.7677 108.313 26.9821 108.313 25.8959V22.8989C108.313 21.8321 108.41 20.9786 108.603 20.3384C108.815 19.6983 109.279 19.1843 109.994 18.7963L107.705 17.4288V15.3629C109.598 13.5784 111.867 12.6861 114.514 12.6861C116.735 12.6861 118.377 13.171 119.439 14.1409C120.521 15.1108 121.062 16.4395 121.062 18.1271V21.7642C121.062 22.9862 121.284 23.8785 121.728 24.441C122.192 25.0036 123.042 25.2848 124.278 25.2848C125.186 25.2848 125.872 25.1394 126.335 24.8484C126.799 24.5574 127.098 24.1307 127.233 23.5681C127.388 23.0056 127.465 22.2394 127.465 21.2695V13.1225H130.594V21.6187C130.594 25.537 128.499 27.4962 124.307 27.4962C121.989 27.4962 120.357 26.9918 119.41 25.9832C118.483 24.9551 118.02 23.5003 118.02 21.6187V18.0398C118.02 16.9535 117.739 16.1582 117.179 15.6539C116.638 15.1302 115.75 14.8683 114.514 14.8683C113.722 14.8683 113.007 14.9847 112.37 15.2175C111.751 15.4308 111.172 15.7509 110.631 16.1776V16.5559L112.978 18.0398V19.4073C112.36 19.6401 111.945 19.9408 111.732 20.3093C111.52 20.6585 111.413 21.2016 111.413 21.9387V23.5681C111.587 23.5487 111.809 23.539 112.08 23.539C112.814 23.539 113.384 23.7621 113.789 24.2083C114.195 24.635 114.398 25.2848 114.398 26.1577C114.398 27.1276 114.166 27.8356 113.702 28.2818C113.258 28.7279 112.476 28.951 111.355 28.951ZM111.413 27.3507C111.896 27.3507 112.225 27.2731 112.399 27.1179C112.572 26.9433 112.659 26.6233 112.659 26.1577C112.659 25.7116 112.572 25.4109 112.399 25.2557C112.225 25.0812 111.896 24.9939 111.413 24.9939C110.95 24.9939 110.621 25.0812 110.428 25.2557C110.254 25.4303 110.168 25.731 110.168 26.1577C110.168 26.6233 110.254 26.9433 110.428 27.1179C110.602 27.2731 110.931 27.3507 111.413 27.3507ZM124.742 34.6248C122.81 34.6248 121.197 34.295 119.903 33.6355C118.609 32.976 117.962 31.9964 117.962 30.6968C117.962 29.6493 118.184 28.9025 118.628 28.4564C119.092 28.0102 119.855 27.7871 120.917 27.7871C121.979 27.7871 122.752 27.9908 123.235 28.3982C123.718 28.8055 123.959 29.4941 123.959 30.464C123.959 30.8326 123.901 31.1332 123.785 31.366C123.67 31.6182 123.496 31.8315 123.264 32.0061C123.592 32.2001 124.152 32.2971 124.944 32.2971C126.973 32.2971 128.537 31.6764 129.638 30.4349L131 32.1807C130.363 33.0148 129.493 33.6258 128.392 34.0138C127.291 34.4211 126.074 34.6248 124.742 34.6248ZM120.859 31.7152C121.323 31.7152 121.641 31.6279 121.815 31.4533C121.989 31.2787 122.076 30.978 122.076 30.5513C122.076 30.1052 121.989 29.7948 121.815 29.6202C121.641 29.465 121.323 29.3874 120.859 29.3874C120.395 29.3874 120.077 29.465 119.903 29.6202C119.729 29.7948 119.642 30.1052 119.642 30.5513C119.642 30.978 119.729 31.2787 119.903 31.4533C120.096 31.6279 120.415 31.7152 120.859 31.7152Z" fill="white"/>
<path d="M6.41678 11.0164C6.55247 11.1318 6.69259 11.2421 6.83687 11.3468L12.6487 15.5679C13.0541 15.8623 13.6018 15.8623 14.0071 15.5679L20.2588 11.0274L24.477 13.4535C25.3836 13.9749 25.8369 14.2356 25.9914 14.5786C26.1263 14.8778 26.129 15.2203 25.9989 15.5215C25.8497 15.8669 25.4006 16.1348 24.5024 16.6705L14.2751 22.7705C13.9306 22.976 13.7584 23.0787 13.5747 23.1189C13.4122 23.1544 13.2441 23.1544 13.0816 23.1189C12.8979 23.0787 12.7257 22.976 12.3812 22.7705L2.1539 16.6705C1.25569 16.1348 0.806576 15.8669 0.65743 15.5215C0.527316 15.2203 0.530015 14.8778 0.66486 14.5786C0.819431 14.2356 1.27271 13.9749 2.17925 13.4535L6.41678 11.0164Z" fill="white"/>
<path d="M11.847 23.7669L2.80699 18.331C1.8881 17.7785 1.42866 17.5022 1.05068 17.5379C0.721096 17.5689 0.420465 17.74 0.22461 18.008C0 18.3154 0 18.8532 0 19.9287V30.0351C0 30.4199 0 30.6124 0.0550252 30.7852C0.103718 30.9382 0.183413 31.0794 0.289094 31.2C0.408514 31.3362 0.572915 31.435 0.901692 31.6327L9.94168 37.0686C10.8606 37.6211 11.32 37.8974 11.698 37.8618C12.0276 37.8307 12.3282 37.6596 12.5241 37.3916C12.7487 37.0843 12.7487 36.5465 12.7487 35.4709V25.3646C12.7487 24.9797 12.7487 24.7873 12.6936 24.6144C12.6449 24.4614 12.5653 24.3202 12.4596 24.1997C12.3401 24.0635 12.1757 23.9646 11.847 23.7669Z" fill="white"/>
<path d="M23.8493 18.331L14.8093 23.7669C14.4806 23.9646 14.3162 24.0635 14.1967 24.1997C14.091 24.3202 14.0114 24.4614 13.9627 24.6144C13.9076 24.7873 13.9076 24.9797 13.9076 25.3646V35.4709C13.9076 36.5465 13.9076 37.0843 14.1322 37.3916C14.3281 37.6596 14.6287 37.8307 14.9583 37.8618C15.3363 37.8974 15.7957 37.6211 16.7146 37.0686L25.7546 31.6327C26.0834 31.435 26.2478 31.3362 26.3672 31.2C26.4729 31.0794 26.5526 30.9382 26.6013 30.7852C26.6563 30.6124 26.6563 30.4199 26.6563 30.0351V19.9287C26.6563 18.8532 26.6563 18.3154 26.4317 18.008C26.2358 17.74 25.9352 17.5689 25.6056 17.5379C25.2276 17.5022 24.7682 17.7785 23.8493 18.331Z" fill="white"/>
<path fill-rule="evenodd" clip-rule="evenodd" d="M20.6799 1.45393C19.822 0.523018 18.6582 0 17.4447 0C16.2312 0 15.0674 0.523018 14.2095 1.45393L13.3279 2.41009L12.4463 1.45393C10.6596 -0.484001 7.76268 -0.484 5.97593 1.45393C4.18917 3.39186 3.60969 6.53387 5.39644 8.4718L6.27801 9.42796L12.6487 14.0549C13.0541 14.3493 13.6018 14.3493 14.0071 14.0549L20.3778 9.42796L21.2594 8.4718C22.8442 6.75372 22.1378 3.03442 20.6799 1.45393Z" fill="white"/>
</svg>
